<?xml version="1.0" encoding="UTF-8"?>
<!DOCTYPE svg PUBLIC "-//W3C//DTD SVG 1.1//EN" "http://www.w3.org/Graphics/SVG/1.1/DTD/svg11.dtd">
<svg xmlns="http://www.w3.org/2000/svg" version="1.1" width="300px" height="255px" style="shape-rendering:geometricPrecision; text-rendering:geometricPrecision; image-rendering:optimizeQuality; fill-rule:evenodd; clip-rule:evenodd" xmlns:xlink="http://www.w3.org/1999/xlink">
<g><path style="opacity:0.997" fill="#fbc11b" d="M 128.5,-0.5 C 142.167,-0.5 155.833,-0.5 169.5,-0.5C 219.948,6.60831 255.948,33.275 277.5,79.5C 254.569,76.879 231.569,76.0456 208.5,77C 197.429,79.2818 186.429,81.9484 175.5,85C 150.28,89.7041 125.613,87.7041 101.5,79C 74.8132,75.6143 48.1465,75.7809 21.5,79.5C 42.8654,33.6558 78.532,6.98913 128.5,-0.5 Z"/></g>
<g><path style="opacity:0.997" fill="#2f2f2f" d="M 277.5,79.5 C 284.923,79.9414 292.256,80.9414 299.5,82.5C 299.5,89.5 299.5,96.5 299.5,103.5C 296.657,104.172 294.157,105.505 292,107.5C 290.734,111.395 290.234,115.395 290.5,119.5C 288.817,161.674 266.817,181.174 224.5,178C 201.438,175.898 183.938,165.064 172,145.5C 167.694,134.935 163.694,124.269 160,113.5C 149.727,105.233 142.06,107.233 137,119.5C 128.389,157.821 104.389,177.487 65,178.5C 31.9767,177.48 13.6433,160.48 10,127.5C 9.50098,123.179 9.33432,118.846 9.5,114.5C 9.57794,107.737 6.24461,104.07 -0.5,103.5C -0.5,96.5 -0.5,89.5 -0.5,82.5C 6.77748,81.1271 14.1108,80.1271 21.5,79.5C 48.1465,75.7809 74.8132,75.6143 101.5,79C 125.613,87.7041 150.28,89.7041 175.5,85C 186.429,81.9484 197.429,79.2818 208.5,77C 231.569,76.0456 254.569,76.879 277.5,79.5 Z"/></g>
<g><path style="opacity:1" fill="#fcfcfc" d="M 56.5,84.5 C 62.5092,84.3338 68.5092,84.5005 74.5,85C 75.8045,85.804 76.4712,86.9707 76.5,88.5C 63.0733,112.611 53.9067,138.278 49,165.5C 48.044,166.894 46.7106,167.561 45,167.5C 36.3823,164.216 30.3823,158.216 27,149.5C 24.844,144.367 23.5106,139.033 23,133.5C 22.3333,123.833 22.3333,114.167 23,104.5C 25.1667,95.6667 30.6667,90.1667 39.5,88C 45.2288,86.4321 50.8955,85.2654 56.5,84.5 Z"/></g>
<g><path style="opacity:1" fill="#fbfbfb" d="M 218.5,84.5 C 221.518,84.3354 224.518,84.502 227.5,85C 228.591,87.0639 228.758,89.2305 228,91.5C 216.099,113.202 207.766,136.202 203,160.5C 201.534,162.325 199.701,162.825 197.5,162C 180.541,147.478 172.707,128.978 174,106.5C 176.744,98.755 181.911,93.255 189.5,90C 199.136,87.2859 208.802,85.4526 218.5,84.5 Z"/></g>
<g><path style="opacity:0.993" fill="#fbc11b" d="M 290.5,119.5 C 292.108,123.59 293.275,127.923 294,132.5C 296.259,145.59 298.092,158.59 299.5,171.5C 299.5,181.833 299.5,192.167 299.5,202.5C 294.858,211.982 288.191,219.815 279.5,226C 261.391,236.482 242.058,243.815 221.5,248C 207.449,250.791 193.449,252.958 179.5,254.5C 159.5,254.5 139.5,254.5 119.5,254.5C 92.5116,252.2 66.1783,246.366 40.5,237C 26.0723,231.553 13.9057,223.053 4,211.5C 2.45406,208.408 0.95406,205.408 -0.5,202.5C -0.5,191.167 -0.5,179.833 -0.5,168.5C 1.10673,150.194 4.44006,132.194 9.5,114.5C 9.33432,118.846 9.50098,123.179 10,127.5C 13.6433,160.48 31.9767,177.48 65,178.5C 104.389,177.487 128.389,157.821 137,119.5C 142.06,107.233 149.727,105.233 160,113.5C 163.694,124.269 167.694,134.935 172,145.5C 183.938,165.064 201.438,175.898 224.5,178C 266.817,181.174 288.817,161.674 290.5,119.5 Z"/></g>
<g><path style="opacity:1" fill="#302f2f" d="M 208.5,186.5 C 216.379,186.216 219.212,189.883 217,197.5C 197.922,215.808 175.089,224.808 148.5,224.5C 140.377,224.758 132.377,223.925 124.5,222C 119.687,217.959 119.354,213.625 123.5,209C 156.025,216.289 184.358,208.789 208.5,186.5 Z"/></g>
</svg>
